<svg width="117" height="38" viewBox="0 0 117 38" fill="none" xmlns="http://www.w3.org/2000/svg">
<path fill-rule="evenodd" clip-rule="evenodd" d="M0 2L27.2381 35C36.4954 35 44 27.6127 44 18.5C44 9.3873 36.4954 2 27.2381 2H0ZM29.1191 30.7374C35.1698 29.8438 39.8095 24.7053 39.8095 18.5C39.8095 11.6655 34.1811 6.125 27.2381 6.125H20.3412C23.3272 9.40906 25.1429 13.7458 25.1429 18.5C25.1429 20.65 24.7708 22.7169 24.0862 24.6399L29.1191 30.7374ZM20.7914 20.6481C20.8974 19.9476 20.9524 19.2303 20.9524 18.5C20.9524 13.2482 18.1037 8.65135 13.8445 6.125H8.80407L20.7914 20.6481Z" fill="url(#paint0_linear_418_15)"/>
<path d="M57.868 2.46V3.885H53.498V15H51.978V3.885H47.608V2.46H57.868ZM59.1027 15V1.13H60.6227V6.925C60.952 6.355 61.389 5.94333 61.9337 5.69C62.4784 5.43667 63.0737 5.31 63.7197 5.31C64.4037 5.31 65.0244 5.443 65.5817 5.709C66.139 5.96233 66.5824 6.355 66.9117 6.887C67.2537 7.419 67.4247 8.09667 67.4247 8.92V15H65.9047V9.452C65.9047 8.40067 65.6767 7.67233 65.2207 7.267C64.7774 6.849 64.2264 6.64 63.5677 6.64C63.1117 6.64 62.6557 6.74767 62.1997 6.963C61.7437 7.17833 61.3637 7.533 61.0597 8.027C60.7684 8.50833 60.6227 9.15433 60.6227 9.965V15H59.1027ZM74.0774 15.19C73.178 15.19 72.3737 14.9937 71.6644 14.601C70.9677 14.2083 70.423 13.6447 70.0304 12.91C69.6377 12.1627 69.4414 11.276 69.4414 10.25C69.4414 9.224 69.6377 8.34367 70.0304 7.609C70.423 6.86167 70.9614 6.29167 71.6454 5.899C72.3294 5.50633 73.1084 5.31 73.9824 5.31C74.869 5.31 75.6227 5.5 76.2434 5.88C76.8767 6.26 77.358 6.77933 77.6874 7.438C78.0167 8.084 78.1814 8.81233 78.1814 9.623C78.1814 9.83833 78.175 10.0347 78.1624 10.212C78.1497 10.3893 78.1307 10.5477 78.1054 10.687H70.9424C71.0184 11.6877 71.3287 12.4667 71.8734 13.024C72.418 13.5813 73.14 13.86 74.0394 13.86C74.736 13.86 75.2997 13.727 75.7304 13.461C76.1737 13.195 76.5284 12.834 76.7944 12.378L77.9914 13.081C77.6367 13.727 77.1237 14.24 76.4524 14.62C75.7937 15 75.002 15.19 74.0774 15.19ZM73.9444 6.64C73.1464 6.64 72.4877 6.88067 71.9684 7.362C71.4617 7.83067 71.1387 8.48933 70.9994 9.338H76.6614C76.6234 8.47667 76.3574 7.81167 75.8634 7.343C75.3694 6.87433 74.7297 6.64 73.9444 6.64ZM90.3598 2.46C92.3231 2.46 93.8621 3.00467 94.9768 4.094C96.1041 5.17067 96.6678 6.716 96.6678 8.73C96.6678 10.744 96.1041 12.2957 94.9768 13.385C93.8621 14.4617 92.3231 15 90.3598 15H86.3128V2.46H90.3598ZM90.5118 13.575C91.9431 13.575 93.0578 13.1507 93.8558 12.302C94.6664 11.4407 95.0718 10.25 95.0718 8.73C95.0718 7.21 94.6664 6.02567 93.8558 5.177C93.0578 4.31567 91.9431 3.885 90.5118 3.885H87.8328V13.575H90.5118ZM104.509 8.863C104.509 8.15367 104.319 7.609 103.939 7.229C103.559 6.83633 103.021 6.64 102.324 6.64C101.665 6.64 101.108 6.78567 100.652 7.077C100.196 7.35567 99.8605 7.81167 99.6451 8.445L98.4101 7.685C98.6635 6.97567 99.1321 6.40567 99.8161 5.975C100.5 5.53167 101.349 5.31 102.362 5.31C103.046 5.31 103.667 5.43033 104.224 5.671C104.781 5.899 105.218 6.25367 105.535 6.735C105.864 7.20367 106.029 7.81167 106.029 8.559V13.157C106.029 13.613 106.27 13.841 106.751 13.841C106.992 13.841 107.226 13.8093 107.454 13.746L107.378 14.943C107.125 15.0697 106.795 15.133 106.39 15.133C105.921 15.133 105.516 15.019 105.174 14.791C104.845 14.563 104.629 14.2147 104.528 13.746C104.199 14.24 103.749 14.6073 103.179 14.848C102.609 15.076 102.045 15.19 101.488 15.19C100.931 15.19 100.411 15.095 99.9301 14.905C99.4488 14.715 99.0625 14.43 98.7711 14.05C98.4925 13.6573 98.3531 13.176 98.3531 12.606C98.3531 11.8967 98.5875 11.314 99.0561 10.858C99.5375 10.3893 100.202 10.0727 101.051 9.908L104.509 9.224V8.863ZM99.9111 12.53C99.9111 12.9227 100.063 13.2457 100.367 13.499C100.684 13.7397 101.127 13.86 101.697 13.86C102.191 13.86 102.647 13.7777 103.065 13.613C103.496 13.4357 103.844 13.176 104.11 12.834C104.376 12.4793 104.509 12.0297 104.509 11.485V10.478L101.754 11.048C101.133 11.1747 100.671 11.352 100.367 11.58C100.063 11.808 99.9111 12.1247 99.9111 12.53ZM116.215 5.5L111.75 16.596C111.383 17.5207 110.965 18.1667 110.496 18.534C110.04 18.9013 109.477 19.085 108.805 19.085C108.375 19.085 107.976 19.0217 107.608 18.895C107.254 18.781 106.937 18.6227 106.658 18.42L107.076 17.09C107.33 17.318 107.596 17.4827 107.874 17.584C108.166 17.698 108.451 17.755 108.729 17.755C109.059 17.755 109.369 17.6537 109.66 17.451C109.952 17.2483 110.218 16.8367 110.458 16.216L110.952 14.981L110.002 12.72L106.981 5.5H108.71L111.085 11.694L111.674 13.385L112.358 11.504L114.581 5.5H116.215ZM49.052 33V20.46H53.517C54.999 20.46 56.082 20.7703 56.766 21.391C57.45 22.0117 57.792 22.854 57.792 23.918C57.792 24.5513 57.6083 25.1277 57.241 25.647C56.8737 26.1537 56.3543 26.4767 55.683 26.616V26.635C56.4303 26.7743 57.0193 27.1163 57.45 27.661C57.8933 28.193 58.115 28.801 58.115 29.485C58.115 30.549 57.716 31.404 56.918 32.05C56.12 32.6833 54.98 33 53.498 33H49.052ZM50.572 25.97H53.536C55.3093 25.97 56.196 25.286 56.196 23.918C56.196 22.5627 55.3093 21.885 53.536 21.885H50.572V25.97ZM50.572 31.575H53.859C54.7583 31.575 55.4233 31.3913 55.854 31.024C56.2973 30.6567 56.519 30.1437 56.519 29.485C56.519 28.8137 56.2973 28.3007 55.854 27.946C55.4233 27.5787 54.7583 27.395 53.859 27.395H50.572V31.575ZM64.3911 33.19C63.4918 33.19 62.6874 32.9937 61.9781 32.601C61.2814 32.2083 60.7368 31.6447 60.3441 30.91C59.9514 30.1627 59.7551 29.276 59.7551 28.25C59.7551 27.224 59.9514 26.3437 60.3441 25.609C60.7368 24.8617 61.2751 24.2917 61.9591 23.899C62.6431 23.5063 63.4221 23.31 64.2961 23.31C65.1828 23.31 65.9364 23.5 66.5571 23.88C67.1904 24.26 67.6718 24.7793 68.0011 25.438C68.3304 26.084 68.4951 26.8123 68.4951 27.623C68.4951 27.8383 68.4888 28.0347 68.4761 28.212C68.4634 28.3893 68.4444 28.5477 68.4191 28.687H61.2561C61.3321 29.6877 61.6424 30.4667 62.1871 31.024C62.7318 31.5813 63.4538 31.86 64.3531 31.86C65.0498 31.86 65.6134 31.727 66.0441 31.461C66.4874 31.195 66.8421 30.834 67.1081 30.378L68.3051 31.081C67.9504 31.727 67.4374 32.24 66.7661 32.62C66.1074 33 65.3158 33.19 64.3911 33.19ZM64.2581 24.64C63.4601 24.64 62.8014 24.8807 62.2821 25.362C61.7754 25.8307 61.4524 26.4893 61.3131 27.338H66.9751C66.9371 26.4767 66.6711 25.8117 66.1771 25.343C65.6831 24.8743 65.0434 24.64 64.2581 24.64ZM76.1739 26.863C76.1739 26.1537 75.9839 25.609 75.6039 25.229C75.2239 24.8363 74.6856 24.64 73.9889 24.64C73.3302 24.64 72.7729 24.7857 72.3169 25.077C71.8609 25.3557 71.5252 25.8117 71.3099 26.445L70.0749 25.685C70.3282 24.9757 70.7969 24.4057 71.4809 23.975C72.1649 23.5317 73.0136 23.31 74.0269 23.31C74.7109 23.31 75.3316 23.4303 75.8889 23.671C76.4462 23.899 76.8832 24.2537 77.1999 24.735C77.5292 25.2037 77.6939 25.8117 77.6939 26.559V31.157C77.6939 31.613 77.9346 31.841 78.4159 31.841C78.6566 31.841 78.8909 31.8093 79.1189 31.746L79.0429 32.943C78.7896 33.0697 78.4602 33.133 78.0549 33.133C77.5862 33.133 77.1809 33.019 76.8389 32.791C76.5096 32.563 76.2942 32.2147 76.1929 31.746C75.8636 32.24 75.4139 32.6073 74.8439 32.848C74.2739 33.076 73.7102 33.19 73.1529 33.19C72.5956 33.19 72.0762 33.095 71.5949 32.905C71.1136 32.715 70.7272 32.43 70.4359 32.05C70.1572 31.6573 70.0179 31.176 70.0179 30.606C70.0179 29.8967 70.2522 29.314 70.7209 28.858C71.2022 28.3893 71.8672 28.0727 72.7159 27.908L76.1739 27.224V26.863ZM71.5759 30.53C71.5759 30.9227 71.7279 31.2457 72.0319 31.499C72.3486 31.7397 72.7919 31.86 73.3619 31.86C73.8559 31.86 74.3119 31.7777 74.7299 31.613C75.1606 31.4357 75.5089 31.176 75.7749 30.834C76.0409 30.4793 76.1739 30.0297 76.1739 29.485V28.478L73.4189 29.048C72.7982 29.1747 72.3359 29.352 72.0319 29.58C71.7279 29.808 71.5759 30.1247 71.5759 30.53ZM84.0666 33.19C83.4586 33.19 82.8823 33.076 82.3376 32.848C81.8056 32.62 81.3686 32.2527 81.0266 31.746C80.6973 31.2267 80.5326 30.5553 80.5326 29.732V23.5H82.0526V29.333C82.0526 30.2957 82.2616 30.9607 82.6796 31.328C83.0976 31.6827 83.6866 31.86 84.4466 31.86C84.928 31.86 85.384 31.7523 85.8146 31.537C86.2453 31.309 86.6 30.9607 86.8786 30.492C87.1573 30.0233 87.2966 29.4153 87.2966 28.668V23.5H88.8166V33H87.4866L87.3916 31.556C87.0623 32.126 86.6126 32.544 86.0426 32.81C85.4853 33.0633 84.8266 33.19 84.0666 33.19ZM97.2942 23.5V24.811H93.8362V30.378C93.8362 30.8467 93.9692 31.195 94.2352 31.423C94.5012 31.651 94.8432 31.765 95.2612 31.765C95.6285 31.765 95.9452 31.7017 96.2112 31.575C96.4772 31.4483 96.7179 31.2773 96.9332 31.062L97.4652 32.335C97.1739 32.601 96.8255 32.81 96.4202 32.962C96.0275 33.114 95.5715 33.19 95.0522 33.19C94.5709 33.19 94.1212 33.1077 93.7032 32.943C93.2852 32.7657 92.9495 32.4933 92.6962 32.126C92.4555 31.746 92.3289 31.252 92.3162 30.644V24.811H90.4162V23.5H92.3162V21.22L93.8362 20.802V23.5H97.2942ZM106.603 23.5L102.138 34.596C101.771 35.5207 101.353 36.1667 100.884 36.534C100.428 36.9013 99.8645 37.085 99.1931 37.085C98.7625 37.085 98.3635 37.0217 97.9961 36.895C97.6415 36.781 97.3248 36.6227 97.0461 36.42L97.4641 35.09C97.7175 35.318 97.9835 35.4827 98.2621 35.584C98.5535 35.698 98.8385 35.755 99.1171 35.755C99.4465 35.755 99.7568 35.6537 100.048 35.451C100.339 35.2483 100.605 34.8367 100.846 34.216L101.34 32.981L100.39 30.72L97.3691 23.5H99.0981L101.473 29.694L102.062 31.385L102.746 29.504L104.969 23.5H106.603Z" fill="url(#paint1_linear_418_15)"/>
<defs>
<linearGradient id="paint0_linear_418_15" x1="-1.22234e-06" y1="35" x2="17.8497" y2="-8.68501" gradientUnits="userSpaceOnUse">
<stop stop-color="#059669"/>
<stop offset="1" stop-color="#10B981"/>
</linearGradient>
<linearGradient id="paint1_linear_418_15" x1="47" y1="36" x2="61.4476" y2="-15.5648" gradientUnits="userSpaceOnUse">
<stop stop-color="#059669"/>
<stop offset="1" stop-color="#10B981"/>
</linearGradient>
</defs>
</svg>
